# xmcd CD database file
#
# Track frame offsets:
#	150
#	21430
#	43642
#	62127
#	83242
#	102010
#	127610
#	153550
#
# Disc length: 2362 seconds
#
# Revision: 2
# Processed by: cddbd v1.5.1PL0 Copyright (c) Steve Scherf et al.
# Submitted via: CDex 1.51
#
DISCID=5c093808
DTITLE=Spyro Gyra - Breakout
DYEAR=1986
DGENRE=Jazz
TTITLE0=Bob Goes to the Store
TTITLE1=Freefall
TTITLE2=Doubletake
TTITLE3=Breakout
TTITLE4=Body Wave
TTITLE5=Whirlwind
TTITLE6=Swept Away
TTITLE7=Guiltless
EXTD=YEAR: 1986
EXTT0=
EXTT1=
EXTT2=
EXTT3=
EXTT4=
EXTT5=
EXTT6=
EXTT7=
PLAYORDER=
